<svg width="165" height="42" viewBox="0 0 165 42" fill="none" xmlns="http://www.w3.org/2000/svg">
<path d="M31.6108 0H10.5369C4.71755 0 0 4.70101 0 10.5V31.5C0 37.299 4.71755 42 10.5369 42H31.6108C37.4302 42 42.1478 37.299 42.1478 31.5V10.5C42.1478 4.70101 37.4302 0 31.6108 0Z" fill="#171717"/>
<path fill-rule="evenodd" clip-rule="evenodd" d="M24.1354 8.86067C24.3068 8.95575 24.4415 9.1053 24.5175 9.28545C24.5938 9.46561 24.6073 9.666 24.5558 9.85467L22.2237 18.3748H30.7328C30.9038 18.3748 31.0714 18.4247 31.2143 18.5182C31.3574 18.6118 31.47 18.745 31.5381 18.9014C31.6063 19.0577 31.6272 19.2306 31.598 19.3986C31.5689 19.5666 31.4913 19.7225 31.3743 19.8471L19.0812 32.9721C18.9474 33.1154 18.7691 33.2098 18.5751 33.2402C18.381 33.2707 18.1822 33.2353 18.0106 33.1399C17.8392 33.0444 17.7047 32.8944 17.6288 32.714C17.5529 32.5334 17.5399 32.3327 17.592 32.1438L19.9241 23.6248H11.415C11.2439 23.6248 11.0765 23.5749 10.9334 23.4815C10.7904 23.3879 10.6778 23.2547 10.6097 23.0984C10.5415 22.942 10.5207 22.7691 10.5498 22.6011C10.5789 22.4331 10.6566 22.2771 10.7735 22.1525L23.0666 9.0275C23.2004 8.88475 23.3785 8.79078 23.5722 8.76054C23.7659 8.73031 23.9642 8.76556 24.1354 8.86067Z" fill="white"/>
<path d="M54.1017 13.258V22.078C54.1017 22.96 54.3195 23.639 54.755 24.115C55.1906 24.591 55.8298 24.829 56.6728 24.829C57.5157 24.829 58.162 24.591 58.6116 24.115C59.0611 23.639 59.2859 22.96 59.2859 22.078V13.258H62.8896V22.057C62.8896 23.373 62.6086 24.486 62.0466 25.396C61.4846 26.306 60.726 26.992 59.7706 27.454C58.8293 27.916 57.7756 28.147 56.6095 28.147C55.4434 28.147 54.3968 27.923 53.4695 27.475C52.5563 27.013 51.8328 26.327 51.2989 25.417C50.765 24.493 50.4981 23.373 50.4981 22.057V13.258H54.1017Z" fill="#171717"/>
<path d="M67.2324 15.064C66.6002 15.064 66.0804 14.882 65.673 14.518C65.2796 14.14 65.0829 13.678 65.0829 13.132C65.0829 12.572 65.2796 12.11 65.673 11.746C66.0804 11.368 66.6002 11.179 67.2324 11.179C67.8506 11.179 68.3564 11.368 68.7497 11.746C69.1572 12.11 69.3609 12.572 69.3609 13.132C69.3609 13.678 69.1572 14.14 68.7497 14.518C68.3564 14.882 67.8506 15.064 67.2324 15.064ZM69.0237 16.282V28H65.4201V16.282H69.0237Z" fill="#171717"/>
<path d="M76.419 28.168C75.3934 28.168 74.4802 27.993 73.6794 27.643C72.8786 27.293 72.2464 26.817 71.7827 26.215C71.3191 25.599 71.0592 24.913 71.003 24.157H74.5645C74.6066 24.563 74.7963 24.892 75.1335 25.144C75.4707 25.396 75.8851 25.522 76.3769 25.522C76.8264 25.522 77.1706 25.438 77.4095 25.27C77.6624 25.088 77.7888 24.857 77.7888 24.577C77.7888 24.241 77.6132 23.996 77.262 23.842C76.9107 23.674 76.3417 23.492 75.555 23.296C74.712 23.1 74.0096 22.897 73.4476 22.687C72.8856 22.463 72.4009 22.12 71.9935 21.658C71.5861 21.182 71.3823 20.545 71.3823 19.747C71.3823 19.075 71.565 18.466 71.9303 17.92C72.3096 17.36 72.8575 16.919 73.574 16.597C74.3046 16.275 75.1686 16.114 76.1661 16.114C77.6413 16.114 78.8004 16.478 79.6433 17.206C80.5003 17.934 80.992 18.9 81.1185 20.104H77.7888C77.7326 19.698 77.55 19.376 77.2409 19.138C76.9458 18.9 76.5525 18.781 76.0607 18.781C75.6393 18.781 75.3161 18.865 75.0913 19.033C74.8666 19.187 74.7542 19.404 74.7542 19.684C74.7542 20.02 74.9298 20.272 75.281 20.44C75.6463 20.608 76.2083 20.776 76.9669 20.944C77.838 21.168 78.5475 21.392 79.0954 21.616C79.6433 21.826 80.121 22.176 80.5284 22.666C80.9499 23.142 81.1677 23.786 81.1817 24.598C81.1817 25.284 80.985 25.9 80.5916 26.446C80.2123 26.978 79.6574 27.398 78.9268 27.706C78.2103 28.014 77.3743 28.168 76.419 28.168Z" fill="#171717"/>
<path d="M90.6147 16.156C91.9635 16.156 93.0453 16.604 93.8601 17.5C94.675 18.382 95.0824 19.6 95.0824 21.154V28H91.4998V21.637C91.4998 20.853 91.2961 20.244 90.8887 19.81C90.4813 19.376 89.9334 19.159 89.2449 19.159C88.5565 19.159 88.0086 19.376 87.6012 19.81C87.1937 20.244 86.99 20.853 86.99 21.637V28H83.3864V12.46H86.99V17.857C87.3553 17.339 87.8541 16.926 88.4863 16.618C89.1185 16.31 89.828 16.156 90.6147 16.156Z" fill="#171717"/>
<path d="M96.8701 22.12C96.8701 20.916 97.0949 19.859 97.5444 18.949C98.0081 18.039 98.6332 17.339 99.42 16.849C100.207 16.359 101.085 16.114 102.054 16.114C102.883 16.114 103.607 16.282 104.225 16.618C104.857 16.954 105.342 17.395 105.679 17.941V16.282H109.283V28H105.679V26.341C105.328 26.887 104.836 27.328 104.204 27.664C103.586 28 102.862 28.168 102.033 28.168C101.078 28.168 100.207 27.923 99.42 27.433C98.6332 26.929 98.0081 26.222 97.5444 25.312C97.0949 24.388 96.8701 23.324 96.8701 22.12ZM105.679 22.141C105.679 21.245 105.426 20.538 104.92 20.02C104.429 19.502 103.824 19.243 103.108 19.243C102.391 19.243 101.78 19.502 101.275 20.02C100.783 20.524 100.537 21.224 100.537 22.12C100.537 23.016 100.783 23.73 101.275 24.262C101.78 24.78 102.391 25.039 103.108 25.039C103.824 25.039 104.429 24.78 104.92 24.262C105.426 23.744 105.679 23.037 105.679 22.141Z" fill="#171717"/>
<path d="M115.493 17.941C115.845 17.395 116.329 16.954 116.947 16.618C117.566 16.282 118.289 16.114 119.118 16.114C120.087 16.114 120.965 16.359 121.752 16.849C122.539 17.339 123.157 18.039 123.607 18.949C124.07 19.859 124.302 20.916 124.302 22.12C124.302 23.324 124.07 24.388 123.607 25.312C123.157 26.222 122.539 26.929 121.752 27.433C120.965 27.923 120.087 28.168 119.118 28.168C118.303 28.168 117.58 28 116.947 27.664C116.329 27.328 115.845 26.894 115.493 26.362V33.586H111.89V16.282H115.493V17.941ZM120.635 22.12C120.635 21.224 120.382 20.524 119.877 20.02C119.385 19.502 118.774 19.243 118.043 19.243C117.327 19.243 116.716 19.502 116.21 20.02C115.718 20.538 115.472 21.245 115.472 22.141C115.472 23.037 115.718 23.744 116.21 24.262C116.716 24.78 117.327 25.039 118.043 25.039C118.76 25.039 119.371 24.78 119.877 24.262C120.382 23.73 120.635 23.016 120.635 22.12Z" fill="#171717"/>
<path d="M137.278 21.952C137.278 22.288 137.257 22.638 137.214 23.002H129.059C129.115 23.73 129.347 24.29 129.754 24.682C130.176 25.06 130.689 25.249 131.293 25.249C132.192 25.249 132.817 24.871 133.168 24.115H137.004C136.807 24.885 136.449 25.578 135.929 26.194C135.423 26.81 134.784 27.293 134.011 27.643C133.238 27.993 132.374 28.168 131.419 28.168C130.267 28.168 129.241 27.923 128.342 27.433C127.443 26.943 126.741 26.243 126.235 25.333C125.729 24.423 125.476 23.359 125.476 22.141C125.476 20.923 125.722 19.859 126.214 18.949C126.72 18.039 127.422 17.339 128.321 16.849C129.22 16.359 130.253 16.114 131.419 16.114C132.557 16.114 133.569 16.352 134.454 16.828C135.339 17.304 136.027 17.983 136.519 18.865C137.025 19.747 137.278 20.776 137.278 21.952ZM133.59 21.007C133.59 20.391 133.379 19.901 132.957 19.537C132.536 19.173 132.009 18.991 131.377 18.991C130.773 18.991 130.26 19.166 129.839 19.516C129.431 19.866 129.178 20.363 129.08 21.007H133.59Z" fill="#171717"/>
<path d="M145.079 19.264H143.141V28H139.537V19.264H138.23V16.282H139.537V15.946C139.537 14.504 139.951 13.412 140.78 12.67C141.609 11.914 142.825 11.536 144.426 11.536C144.693 11.536 144.89 11.543 145.016 11.557V14.602C144.328 14.56 143.843 14.658 143.562 14.896C143.281 15.134 143.141 15.561 143.141 16.177V16.282H145.079V19.264Z" fill="#171717"/>
<path d="M148.585 15.064C147.953 15.064 147.433 14.882 147.026 14.518C146.632 14.14 146.436 13.678 146.436 13.132C146.436 12.572 146.632 12.11 147.026 11.746C147.433 11.368 147.953 11.179 148.585 11.179C149.203 11.179 149.709 11.368 150.102 11.746C150.51 12.11 150.714 12.572 150.714 13.132C150.714 13.678 150.51 14.14 150.102 14.518C149.709 14.882 149.203 15.064 148.585 15.064ZM150.376 16.282V28H146.773V16.282H150.376Z" fill="#171717"/>
<path d="M165 16.282L157.624 33.565H153.747L156.444 27.601L151.66 16.282H155.685L158.404 23.611L161.101 16.282H165Z" fill="#171717"/>
</svg>
